<?xml version="1.0" encoding="utf-8"?>
<!-- Generator: Adobe Illustrator 16.0.0, SVG Export Plug-In . SVG Version: 6.00 Build 0)  -->
<!DOCTYPE svg PUBLIC "-//W3C//DTD SVG 1.1//EN" "http://www.w3.org/Graphics/SVG/1.1/DTD/svg11.dtd">
<svg version="1.1" id="Layer_1" xmlns="http://www.w3.org/2000/svg" xmlns:xlink="http://www.w3.org/1999/xlink" x="0px" y="0px"
	 width="128px" height="128px" viewBox="0 0 128 128" enable-background="new 0 0 128 128" xml:space="preserve">
<g>
	<g>
		<g>
			<path fill="#fff" d="M63.09,54.993c-14.559,0-26.404-11.874-26.404-26.47c0-14.586,11.845-26.453,26.404-26.453
				c14.543,0,26.374,11.866,26.374,26.453C89.464,43.119,77.633,54.993,63.09,54.993z M63.09,6.081
				c-12.348,0-22.393,10.067-22.393,22.442c0,12.384,10.045,22.459,22.393,22.459c12.331,0,22.363-10.075,22.363-22.459
				C85.453,16.148,75.421,6.081,63.09,6.081z"/>
		</g>
		<g>
			<g>
				<path fill="#fff" d="M65.254,31.732l-6.768-2.641c-2.731-1.74-3.305-3.667-3.305-4.978v-2.871
					c0-3.431,2.785-6.223,6.208-6.223h3.375c3.422,0,6.205,2.792,6.205,6.223v1.341h-4.011v-1.341c0-1.22-0.984-2.212-2.194-2.212
					h-3.375c-1.211,0-2.197,0.993-2.197,2.212v2.871c0,0.395,0.478,0.946,1.289,1.49l6.21,2.384L65.254,31.732z"/>
			</g>
			<g>
				<path fill="#fff" d="M64.765,42.532h-3.375c-3.423,0-6.208-2.791-6.208-6.22v-1.344h4.011v1.344
					c0,1.218,0.985,2.209,2.197,2.209h3.375c1.21,0,2.194-0.991,2.194-2.209V33.44c0-0.329-0.423-0.93-1.362-1.562l-5.917-2.285
					l1.444-3.741l6.471,2.541c2.207,1.407,3.374,3.152,3.374,5.047v2.873C70.97,39.742,68.187,42.532,64.765,42.532z"/>
			</g>
			<g>
				<rect x="61.326" y="11.255" fill="#fff" width="4.011" height="6.298"/>
			</g>
			<g>
				<rect x="61.326" y="39.508" fill="#fff" width="4.011" height="6.297"/>
			</g>
		</g>
	</g>
	<g>
		<g>
			<path fill="#fff" d="M23.743,61.768l-3.924-0.826l3.138-14.875c1.146-3.597,0.582-8.331-2.724-10.019l-0.725-0.369
				l-1.429,4.839l-3.846-1.136l2.75-9.311l2.083,0.911c0.196,0.081,0.313,0.131,0.431,0.19l2.559,1.303
				c5.298,2.707,6.397,9.426,4.754,14.709L23.743,61.768z"/>
		</g>
		<g>
			<path fill="#fff" d="M24.772,99.822L6.667,60.92L0,24.725l2.175-0.21c0.221-0.022,0.383-0.036,0.552-0.036h2.862
				c5.947,0,9.966,5.491,10.89,10.95l6.827,25.563l2.024,2.031c0.368-2.763,1.676-5.436,3.587-7.247l0.103-0.091l2.276-1.898
				l24.017,24.092l0.057,16.269l-4.011,0.014l-0.051-14.619l-20.19-20.253c-1.921,2.335-2.666,6.272-0.902,8.635l12.719,12.758
				l-2.704,2.956l-0.139-0.126L27.657,71.098c-0.146-0.156-0.286-0.315-0.418-0.479l-7.537-7.559l-2.091-7.931l-5.074-18.955
				c-0.604-3.726-3.244-7.685-6.948-7.685H4.772l5.747,31.202l17.89,38.438L24.772,99.822z"/>
		</g>
		<g>
			<polygon fill="#fff" points="61.212,125.93 57.201,125.93 57.201,101.295 20.397,101.295 20.397,115.304 16.386,115.304 
				16.386,97.284 61.212,97.284 			"/>
		</g>
		<g>
			<rect x="24.545" y="104.814" fill="#fff" width="4.011" height="4.527"/>
		</g>
	</g>
	<g>
		<g>
			<path fill="#fff" d="M104.324,61.769l-3.064-14.584c-1.644-5.282-0.545-12.001,4.751-14.707l2.557-1.302
				c0.127-0.065,0.261-0.122,0.401-0.178l2.061-0.855l0.701,2.11l2.106,7.129l-3.846,1.137l-1.43-4.838l-0.729,0.369
				c-3.302,1.688-3.867,6.42-2.721,10.017l0.052,0.197l3.085,14.681L104.324,61.769z"/>
		</g>
		<g>
			<path fill="#fff" d="M103.295,99.822l-3.637-1.692l17.892-38.438l5.746-31.203l-0.817,0c-3.702,0.001-6.343,3.96-6.946,7.685
				l-0.043,0.199l-7.122,26.686l-7.504,7.528c-0.13,0.159-0.265,0.313-0.407,0.464L87.975,83.515l-2.84-2.832l12.752-12.791
				c1.734-2.328,0.985-6.267-0.937-8.603L76.761,79.542l-0.052,14.619l-4.011-0.014l0.058-16.269l24.002-24.08l2.394,1.978
				c1.91,1.811,3.22,4.485,3.593,7.242l2.02-2.027l1.814-6.885l5.012-18.679c0.924-5.457,4.942-10.948,10.889-10.95l2.864,0.002
				c0.162,0,0.315,0.012,0.474,0.026L128,24.711l-0.328,2.163l-6.27,34.048L103.295,99.822z"/>
		</g>
		<g>
			<polygon fill="#fff" points="70.867,125.93 66.856,125.93 66.856,97.284 111.682,97.284 111.682,115.304 107.671,115.304 
				107.671,101.295 70.867,101.295 			"/>
		</g>
		<g>
			<rect x="99.513" y="104.815" fill="#fff" width="4.011" height="4.526"/>
		</g>
	</g>
	<g>
		<rect x="28.944" y="116.351" fill="#fff" width="30.305" height="4.011"/>
	</g>
	<g>
		<rect x="68.369" y="116.351" fill="#fff" width="34.719" height="4.011"/>
	</g>
</g>
</svg>
