<?xml version="1.0" encoding="utf-8"?>
<!-- Generator: Adobe Illustrator 24.0.2, SVG Export Plug-In . SVG Version: 6.00 Build 0)  -->
<svg version="1.1" id="Camada_1" xmlns="http://www.w3.org/2000/svg" xmlns:xlink="http://www.w3.org/1999/xlink" x="0px" y="0px"
	 viewBox="0 0 1280 1024" style="enable-background:new 0 0 1280 1024;" xml:space="preserve">
<style type="text/css">
	.st0{fill:#FCFCFC;}
	.st1{fill:#333333;}
	.st2{fill:#333333;}
</style>
<g>
	<g>
		<path class="st0" d="M639.5,8.7c210.5,0,421.1,0.1,631.6-0.2c7.7,0,8.6,2.1,8.6,9c-0.2,329.7-0.2,659.5,0,989.2
			c0,7.1-1.2,8.9-8.7,8.9c-420.7-0.2-841.5-0.2-1262.2,0c-7.9,0-9.1-2.2-9.1-9.5c0.2-329.4,0.2-658.8,0-988.2c0-7.4,1.4-9.4,9.2-9.4
			C219.1,8.7,429.3,8.7,639.5,8.7z M598.6,866.2c24.4-5.7,48.6-7.1,72.5-1.9c10.7,2.3,11.1-1.1,11.1-9.8
			c-0.2-205.1-0.1-410.1-0.2-615.2c0-3.9,0.9-8-0.8-11.9c-31.5,12.7-46.4,14.3-82.6,0C598.6,440.2,598.6,652.9,598.6,866.2z
			 M141.1,762.2c0.2,61,49.5,109.7,110.9,109.6c60.4-0.1,109.7-49.4,109.8-109.8c0-61.5-49.4-110.9-111-110.6
			C189.7,651.6,140.9,700.9,141.1,762.2z M1029.7,447.1C967,447,916.8,496.2,916.4,558.2c-0.4,62.7,49.6,113.3,112.1,113.5
			c62,0.2,112.6-49.9,113-111.9C1142,497.9,1091.6,447.1,1029.7,447.1z M1028.8,201.7c2.6,5.4,4.3,8.9,5.9,12.4
			c68.4,147.9,136.8,295.7,205.3,443.6c6,13,11.2,16.5,18.7,12.9c7.5-3.6,8.1-9.8,2.1-22.7c-64.6-139.6-128.3-279.7-194.5-418.6
			c-18.6-39-30.7-77.5-25.9-120.7c0.7-6.4,0.4-12.9-6.5-17.2c22.3-7.4,33.3-22.7,30.4-41.1c-2.8-17.8-16.9-30.4-34.5-31
			c-17.3-0.6-32.3,11.7-36,29.2c-1.8,8.3-0.3,16.1,3.5,23.4c5.4,10.3,14.3,16.2,26.7,19.1c-6.4,4.8-6.9,10.7-6.8,16.9
			c0.1,17.2-0.3,34.4,0.2,51.5c0.2,8.7-1.7,16.4-5.3,24.2C939.7,339.4,867.6,495.2,795.6,651c-4.6,9.9-3.3,17,3.9,19.7
			c9.2,3.4,13.4-2.4,16.8-9.8c37.2-80.5,74.4-161,111.7-241.5C961.3,347.5,994.6,275.6,1028.8,201.7z M251.2,402.6
			c1.6,3.4,2.8,5.7,3.9,8c58.3,128.8,116.7,257.6,175,386.5c11.6,25.7,23.2,51.4,34.8,77.2c3.2,7.1,8.4,11,16,7.7
			c7.1-3.1,7.9-9.4,5.4-16.2c-0.7-1.9-1.7-3.6-2.6-5.5c-67.4-149-134.5-298.3-202.6-447c-12.7-27.8-22.2-55.2-18.4-86
			c1.2-10,0.7-18.2-13.2-13.9c-0.9,0.3-2-0.1-3-0.4c-6-2-6.5,1.3-6.5,6.1c0.2,12.8,0.1,25.6,0,38.4c-0.1,7,0.2,13.7-2.9,20.6
			c-52.5,115.6-104.7,231.3-157.1,347c-20.8,45.9-41.6,91.8-62.3,137.7c-4.7,10.4-2.5,17.8,5.6,19.8c9,2.2,12.4-3.8,15.5-10.8
			C94,749.9,149.1,628,204.2,506.2C219.7,472,235.2,437.8,251.2,402.6z M1235.8,694.3c-138.4,0-275.5,0-413.7,0
			c5.6,11.3,11.1,21.6,16,32.2c1.9,4.2,4.9,3.8,8.3,3.8c17.5,0,35,0,52.5,0c103.4,0,206.7,0,310.1-0.1c3.6,0,8.1,2.2,10.6-3.1
			C1224.6,716.3,1230.1,705.7,1235.8,694.3z M44.4,894.3c5.3,10.6,10.3,20,14.6,29.8c2.3,5.1,5.3,6.6,10.8,6.5
			c22.9-0.3,45.8-0.1,68.7-0.1c97.6,0,195.2,0,292.8-0.1c3.4,0,7.8,2,10-2.3c5.7-10.9,11-21.9,17-33.8
			C319.7,894.3,182.8,894.3,44.4,894.3z M771.1,956.2c-36.2-51.9-83.8-77.2-145.4-72c-49.8,4.2-87.7,29.2-116.2,72
			C597.4,956.2,683.1,956.2,771.1,956.2z M639.1,215.1c34.6,0.2,62-26.6,61.9-60.7c-0.1-33-27.4-60.4-60.4-60.6
			c-33.9-0.2-61.1,26.8-61.1,60.5C579.4,188,605.8,214.9,639.1,215.1z M640.8,1005.2c21.5,0,43.1,0,64.6,0
			c40.1,0,80.1-0.2,120.2,0.2c7.1,0.1,9.9-1.9,8.8-8.9c-0.3-2-0.4-4.1,0-6c1.8-9.9-2.3-12-11.9-12c-119.8,0.4-239.6,0.2-359.5,0.2
			c-16.6,0-16.2,0-16.8,16.9c-0.3,7.9,1.9,9.9,9.8,9.9C517.6,1005,579.2,1005.2,640.8,1005.2z M287.1,255.1
			c-0.1-19.8-16.6-36-36.2-35.6c-19.9,0.4-35.4,16.6-35.1,36.7c0.3,19.4,16.2,35.1,35.6,35.1C271.1,291.2,287.2,274.9,287.1,255.1z
			 M214.6,620c0,13.6,0,13.6,13.3,11.4c13.7-2.3,27.3-3.1,41.1-0.8c19.8,3.2,19.8,3.2,19-17c-0.4-10.7-4.2-14.5-14.7-14.6
			c-12.4-0.1-24.9,0-37.3,0C216.5,598.9,214.6,600.8,214.6,620z"/>
		<path class="st1" d="M598.6,866.2c0-213.3,0-426,0-638.7c36.2,14.3,51.1,12.7,82.6,0c1.7,3.9,0.8,7.9,0.8,11.9
			c0.1,205.1,0,410.1,0.2,615.2c0,8.7-0.5,12.1-11.1,9.8C647.2,859.1,623,860.5,598.6,866.2z"/>
		<path class="st1" d="M141.1,762.2c-0.2-61.2,48.6-110.6,109.7-110.8c61.5-0.3,111,49.1,111,110.6c0,60.4-49.4,109.7-109.8,109.8
			C190.6,871.9,141.3,823.2,141.1,762.2z"/>
		<path class="st1" d="M1029.7,447.1c61.8,0.1,112.2,50.9,111.8,112.7c-0.4,61.9-51,112-113,111.9c-62.5-0.2-112.5-50.8-112.1-113.5
			C916.8,496.2,967,447,1029.7,447.1z M1036.6,520.1c8.4,0,16.8-0.1,25.3,0c7.5,0.1,12.9-3,13.1-10.8c0.1-8.4-5.6-11.6-13.4-11.5
			c-3,0-6.1-0.3-9.1,0.1c-8.6,1.1-13.9-0.3-12.8-11.1c0.7-6.9-3.6-11.6-11.1-11.4c-7,0.1-11.3,5-10.5,11.1
			c1.7,12.1-5.2,12.1-13.5,11.4c-3-0.2-6.1-0.1-9.1,0c-8.6,0.2-13,4.5-12.9,13.2c0,15.2,0,30.3,0,45.5c0,9.1,4.5,13.6,13.7,13.5
			c12.8-0.1,25.6,0,38.4,0c18.5,0,18.1,0,18.6,18.1c0.2,7.8-1.8,10.3-9.8,9.9c-16.5-0.6-33-0.3-49.5,0c-6.6,0.1-11.1,3.9-11.2,10.6
			c-0.1,7.2,4.5,10.9,11.6,11.3c3,0.2,6.1,0.3,9.1,0c9.6-1.2,16.1,0.1,14.8,12.6c-0.7,6.4,4.1,10.7,10.9,10.6
			c6.2-0.1,11.2-4,10.4-10c-1.9-14.3,6.5-14.1,16.2-13.2c2,0.2,4,0,6.1,0c9.2,0.1,13.6-4.5,13.6-13.6c0-15.2,0.1-30.3,0-45.5
			c-0.1-8.5-4.3-13-13.2-12.9c-12.1,0.2-24.3,0-36.4,0c-22.8,0-22.7,0-21.3-22.6c0.3-4.5,1.6-5.7,5.9-5.6
			C1019,520.3,1027.8,520.1,1036.6,520.1z"/>
		<path class="st2" d="M1028.8,201.7c-34.2,73.9-67.5,145.8-100.8,217.8c-37.2,80.5-74.5,161-111.7,241.5
			c-3.4,7.4-7.7,13.2-16.8,9.8c-7.3-2.7-8.5-9.8-3.9-19.7c72.1-155.8,144.2-311.6,216.4-467.3c3.6-7.8,5.5-15.6,5.3-24.2
			c-0.4-17.2,0-34.3-0.2-51.5c0-6.2,0.4-12.1,6.8-16.9c-12.4-2.9-21.3-8.8-26.7-19.1c-3.8-7.3-5.3-15.1-3.5-23.4
			c3.7-17.5,18.7-29.8,36-29.2c17.6,0.6,31.7,13.2,34.5,31c2.9,18.4-8.1,33.7-30.4,41.1c6.8,4.3,7.2,10.7,6.5,17.2
			c-4.8,43.2,7.3,81.7,25.9,120.7c66.2,138.9,129.9,278.9,194.5,418.6c6,12.9,5.4,19.2-2.1,22.7c-7.6,3.6-12.7,0.2-18.7-12.9
			c-68.4-147.9-136.8-295.7-205.3-443.6C1033.1,210.6,1031.4,207.1,1028.8,201.7z"/>
		<path class="st2" d="M251.2,402.6c-16,35.2-31.5,69.4-47,103.7C149.1,628,94,749.9,39,871.7c-3.1,6.9-6.5,12.9-15.5,10.8
			c-8.1-2-10.3-9.4-5.6-19.8c20.7-45.9,41.5-91.8,62.3-137.7c52.3-115.7,104.5-231.4,157.1-347c3.1-6.9,2.9-13.6,2.9-20.6
			c0.1-12.8,0.2-25.6,0-38.4c-0.1-4.8,0.4-8.1,6.5-6.1c0.9,0.3,2.1,0.7,3,0.4c13.9-4.2,14.4,4,13.2,13.9c-3.8,30.8,5.7,58.2,18.4,86
			c68.1,148.7,135.2,297.9,202.6,447c0.8,1.8,1.9,3.6,2.6,5.5c2.5,6.8,1.7,13.1-5.4,16.2c-7.6,3.3-12.8-0.5-16-7.7
			c-11.6-25.7-23.1-51.5-34.8-77.2c-58.3-128.8-116.6-257.6-175-386.5C254,408.3,252.9,406,251.2,402.6z"/>
		<path class="st1" d="M1235.8,694.3c-5.7,11.3-11.2,22-16.3,32.8c-2.5,5.2-7,3.1-10.6,3.1c-103.4,0.1-206.7,0.1-310.1,0.1
			c-17.5,0-35,0-52.5,0c-3.3,0-6.3,0.4-8.3-3.8c-4.9-10.6-10.3-20.9-16-32.2C960.3,694.3,1097.4,694.3,1235.8,694.3z"/>
		<path class="st1" d="M44.4,894.3c138.4,0,275.3,0,413.9,0c-5.9,11.8-11.3,22.9-17,33.8c-2.2,4.3-6.7,2.3-10,2.3
			c-97.6,0.1-195.2,0.1-292.8,0.1c-22.9,0-45.8-0.2-68.7,0.1c-5.5,0.1-8.5-1.4-10.8-6.5C54.7,914.3,49.6,904.9,44.4,894.3z"/>
		<path class="st1" d="M771.1,956.2c-88,0-173.7,0-261.6,0c28.5-42.8,66.4-67.8,116.2-72C687.4,879,734.9,904.2,771.1,956.2z"/>
		<path class="st1" d="M639.1,215.1c-33.3-0.2-59.7-27.1-59.6-60.8c0.1-33.8,27.3-60.7,61.1-60.5c33,0.2,60.3,27.6,60.4,60.6
			C701.1,188.5,673.7,215.3,639.1,215.1z"/>
		<path class="st1" d="M640.8,1005.2c-61.6,0-123.2-0.2-184.8,0.2c-7.9,0-10.1-2-9.8-9.9c0.6-16.8,0.1-16.9,16.8-16.9
			c119.8,0,239.6,0.1,359.5-0.2c9.6,0,13.7,2.1,11.9,12c-0.4,2-0.3,4.1,0,6c1.1,7.1-1.7,9-8.8,8.9c-40.1-0.3-80.1-0.2-120.2-0.2
			C683.8,1005.2,662.3,1005.2,640.8,1005.2z"/>
		<path class="st1" d="M287.1,255.1c0.1,19.8-16,36.1-35.7,36.1c-19.4,0-35.4-15.7-35.6-35.1c-0.3-20.1,15.2-36.3,35.1-36.7
			C270.5,219,287,235.3,287.1,255.1z"/>
		<path class="st2" d="M214.6,620c0-19.2,1.9-21.1,21.4-21.1c12.4,0,24.9-0.1,37.3,0c10.6,0.1,14.3,3.9,14.7,14.6
			c0.8,20.2,0.8,20.3-19,17c-13.8-2.2-27.4-1.5-41.1,0.8C214.6,633.6,214.6,633.6,214.6,620z"/>
		<path class="st0" d="M1036.6,520.1c-8.8,0-17.5,0.2-26.3-0.1c-4.3-0.1-5.6,1.1-5.9,5.6c-1.4,22.6-1.6,22.6,21.3,22.6
			c12.1,0,24.3,0.1,36.4,0c8.9-0.1,13.1,4.3,13.2,12.9c0.1,15.2,0,30.3,0,45.5c0,9.1-4.4,13.7-13.6,13.6c-2,0-4.1,0.2-6.1,0
			c-9.7-0.8-18.1-1-16.2,13.2c0.8,5.9-4.2,9.9-10.4,10c-6.8,0.1-11.5-4.3-10.9-10.6c1.3-12.5-5.2-13.8-14.8-12.6
			c-3,0.4-6.1,0.3-9.1,0c-7-0.5-11.7-4.1-11.6-11.3c0.1-6.7,4.6-10.5,11.2-10.6c16.5-0.3,33-0.7,49.5,0c8,0.3,10.1-2.1,9.8-9.9
			c-0.5-18.1-0.1-18.1-18.6-18.1c-12.8,0-25.6-0.1-38.4,0c-9.2,0.1-13.7-4.4-13.7-13.5c0-15.2,0-30.3,0-45.5c0-8.7,4.3-13,12.9-13.2
			c3-0.1,6.1-0.2,9.1,0c8.3,0.6,15.2,0.7,13.5-11.4c-0.8-6.1,3.5-11,10.5-11.1c7.5-0.1,11.8,4.6,11.1,11.4
			c-1.2,10.9,4.2,12.3,12.8,11.1c3-0.4,6.1,0,9.1-0.1c7.9-0.1,13.6,3.1,13.4,11.5c-0.1,7.8-5.6,10.8-13.1,10.8
			C1053.4,520,1045,520.1,1036.6,520.1z"/>
	</g>
</g>
</svg>
