<?xml version="1.0" encoding="utf-8"?>
<!-- Generator: Adobe Illustrator 24.0.2, SVG Export Plug-In . SVG Version: 6.00 Build 0)  -->
<svg version="1.1" id="Camada_1" xmlns="http://www.w3.org/2000/svg" xmlns:xlink="http://www.w3.org/1999/xlink" x="0px" y="0px"
	 viewBox="0 0 1920 1920" style="enable-background:new 0 0 1920 1920;" xml:space="preserve">
<style type="text/css">
	.st0{fill:#FDFDFD;}
	.st1{fill:#333333;}
	.st2{fill:#333333;}
</style>
<g>
	<g>
		<path class="st0" d="M10.5,914c0-268.4,0-536.9-0.2-805.3c0-6.9,1.1-9,8.7-9c625,0.2,1250.1,0.2,1875.1,0c7.7,0,9.4,1.4,9.4,9.3
			c-0.2,564.5-0.2,1129,0,1693.6c0,7.5-1.9,8.8-9,8.7c-178.4-0.2-356.9-0.2-535.3-0.2c-0.2-0.6-0.3-1.3-0.5-1.9
			c0.2-3.5,0.5-7,0.5-10.5c0.1-39.2,0.8-78.5,0-117.7c-0.8-39.2,14.7-68.8,47.9-89.5c12-7.5,23.5-15.7,35.6-23
			c82.8-49.8,165.5-99.5,244.9-154.8c28.1-19.6,50.8-43,66.5-73.4c3.2-6.3,7-12.3,10.3-18.5c51.3-94.9,94.4-193.5,133.2-294
			c2.7-7,3.8-14,3.9-21.5c0.5-95.6-3.8-190.9-15.7-285.7c-3-23.5-6-47.1-18.7-68.1c-7.6-12.6-18.2-19.5-32.1-22.1
			c-32.1-6.1-65,10.6-81.8,41.5c-7.7,14.2-12.2,29.6-15.8,45.3c-8.9,39.6-12.5,79.9-17.3,120.1c-2.1,17.5-3.9,35.1-4.8,52.8
			c-0.9,17.8,3.2,22.6,20.3,27.5c5.8,1.7,11.7,3.4,17.6,4.8c9.8,2.3,21.6,11,28.8,5.6c7.4-5.5,6-19.5,7.4-29.9
			c6.6-50,12.8-100,19.4-150c0.7-5.6,0.9-11.7,5.7-17.6c5.4,10.4,4.7,20.6,5.4,30.2c6.3,81.8,8.8,163.7,6,245.7
			c-0.2,4.6-1.3,8.7-3.3,12.8c-49.2,103.6-99.8,206.6-150.6,309.5c-2,4.1-4.6,7.4-8.4,10.1c-69.8,50.3-140,100.1-212.9,145.9
			c-52.7,33.1-105.4,66.3-162.3,91.8c-19.3,8.6-38.8,16.9-60.3,19.1c-5.5,0.5-10.9,0.4-16.1-1.6c-13.8-5.3-19.2-18.1-13.7-34.2
			c8.1-23.9,19.9-45.9,34.5-66.3c56.5-78.7,124.2-146.4,202.4-203.6c29.8-21.8,61.4-40.9,97.8-50.5c26.1-6.9,50.5-5.6,69.8,16.5
			c3.5,4,5.8,4.2,9.5-0.3c35.9-43.3,72.5-86,105.6-131.5c20.8-28.6,41.5-56.9,69.4-79.6c23.8-19.3,23.4-64.8,1.2-83.8
			c-13.2-11.3-28.6-18.2-46.2-19.8c-37.1-3.4-69.3,10.4-99.9,28.9c-49.4,29.7-89.2,70.2-125.5,114.4c-17.6,21.4-35.5,42.3-55.1,61.9
			c-16.2,16.2-35.3,24.5-58.1,26.7c-24,2.3-47.9,5.7-71.6,9.6c-50.6,8.4-100,21.8-143.4,50c-80.6,52.2-141.2,122.5-182.7,209.1
			c-20.7,43.4-33.4,88.4-31.5,137.4c1.7,43.7,2.3,87.4,3.7,131.1c1.1,33.7,1.8,67.4,2.7,101.1c-16.1,0-32.2,0-48.2,0
			c-0.1-0.6-0.2-1.3-0.3-1.9c0.2-6.7,0.7-13.4,0.7-20.1c-0.1-55.9-0.7-111.9,5.8-167.6c5.8-50.1-0.1-98.6-16.9-146
			c-27.1-76.5-74.4-139.3-132.9-194.5c-35.9-33.8-75.1-62.2-122.8-77.1c-59.1-18.4-119.6-29.3-181.4-33c-5.6-0.3-9.4-2.1-13.4-5.9
			c-35.4-34.3-67.3-71.7-99.5-108.9c-37.2-42.8-80.2-78.7-132.6-102c-31.6-14.1-63.6-20.1-96.7-4.6c-39.5,18.5-46.5,71.6-12.3,98.8
			c17.9,14.2,33,30.7,46,49c38.6,54.6,81.6,105.8,124,157.5c4.9,6,7.6,5.7,12.1,0.3c16.2-19.4,37.2-21.9,60.4-17.3
			c23.6,4.7,45.1,14.6,65.6,26.7c71.3,42,131.4,97.5,186.4,158.7c30.3,33.7,58.5,69.2,79.4,109.8c6.3,12.3,11.9,25,12.1,39.2
			c0.2,14.4-6.9,22.1-21.2,23.5c-7.4,0.7-14.7-0.1-22-1.8c-38.5-9.1-73.4-26.9-107.3-46.4c-111.4-64.1-217.7-136.1-320-213.8
			c-2.9-2.2-5-4.7-6.6-8c-47.7-98.3-95.7-196.5-141.6-295.6c-7.6-16.4-11.6-33.4-11.6-51.2c-0.1-74,2.2-147.8,7.8-221.6
			c0.6-8.3,0.5-17.2,6.4-26c1.1,4.3,2.1,7.3,2.6,10.3c6.2,33.5,9.2,67.4,13.6,101.2c3.4,26.1,6.8,52.2,11.7,78.1
			c1.3,7,3.4,10.7,12,7.7c13.3-4.7,27.1-7.7,40.6-11.8c14.3-4.3,17.3-8.5,17.9-23.5c0.1-3.8-0.1-7.7-0.5-11.5
			c-3.5-32.9-6.6-65.8-10.9-98.7c-4.2-32.8-8.8-65.5-20.7-96.7c-11.1-29-31.2-48.1-61.4-56c-24-6.2-43.1,0.7-57.5,20.6
			c-8.8,12.1-14.3,25.6-16.4,40.6c-8.8,61.4-13.2,123.3-17.5,185.1C13.2,888.9,14.5,901.7,10.5,914z M680.7,711.5
			c117,1.4,228.3-89.2,229.4-226.6c1.2-140.6-114.9-229.1-225.5-230.6c-110.6-1.5-230.4,88.6-230.1,228.1
			C454.8,610.2,553.1,710.7,680.7,711.5z M911.4,603.2c2.4,0.1,4,0.3,5.6,0.3c26-0.3,52.1-0.1,77.8,4.7
			c65.9,12.3,119.7,45.6,165.6,93.5c74.7,77.9,98.2,171,78.1,274.6c-35.4,182.9-241.1,299.8-425.4,219
			C660.8,1128.6,587.8,954,648.5,799.7c6.7-17.1,15-33.3,23.5-49.5c2.9-5.6,3.2-9.3-5.2-9.9c-14.1-0.9-28.2-2.3-42.2-4.3
			c-6-0.9-8.4,0.6-10.4,6.1c-5.8,16.3-12.4,32.3-18.2,48.6c-19.8,56.4-28,114.4-17.5,173.5c14.5,81.3,48.5,152,110.5,209.6
			c90.9,84.3,197,117,316.9,92.6c221.4-45.1,342.7-260.4,270.7-475c-33.5-99.9-102.6-171-201.3-211.8
			c-44.1-18.2-89.2-30.3-137.4-28.3c-3.4,0.1-6.9-0.8-8.6,3.9C923.6,571.2,917.5,586.9,911.4,603.2z M1314.5,283.6
			c0.2-22,0.2-38.1-2.6-54c-1.2-6.6-3.1-13.2-5.8-19.2c-37.8-83.7-115.5-122.6-206.3-103.6c-79.6,16.7-140,99.7-129.7,185.6
			c3,25.2,7.4,49.7,21.9,70.9c51.1,75,117.6,102.1,209.9,76.6c34.3-9.5,60.7-31.3,81.6-59.8C1305.9,349.6,1319.9,316.5,1314.5,283.6
			z M886.1,967.6c0,0.1,0,0.2,0,0.4c-1.6,0-3.2,0-4.8,0c-20,0-20,0-17.8,19.3c3.7,32.1,12.1,61.3,45.3,76.1
			c5.8,2.6,10.3,7.6,10.6,15c0.3,6.5,5.2,7.9,10.3,7.4c9-0.9,19.4,4.9,26.6-5.1c0.5-0.7,0.6-1.9,0.6-2.8
			c-0.3-10.7,6.4-16.3,14.9-20.4c9.2-4.4,17.3-10.1,22.5-19c12-20.4,16.4-42.4,12.7-65.7c-3.3-21.1-15.7-37.6-29.1-53.4
			c-15.5-18.1-33.2-34.1-50.1-50.8c-15.4-15.2-15.2-33.1-11-51.8c2.4-10.6,9.5-14.7,21.9-14.5c12.2,0.2,18.5,4.8,21.6,15.2
			c2.1,7,1.6,14.1,1.3,21.1c-0.2,5.2,1.5,6.6,6.5,6.4c8.3-0.4,16.7-0.1,25.1-0.1c17,0,16.6,0,14.6-17c-3.1-25.8-12-47.7-36.3-61
			c-6.7-3.7-11.4-10.1-14.5-17.5c-4-9.7-24.3-16.9-33.9-12.2c-2.1,1.1-4,2.8-3.7,5.2c1.5,14.9-8.7,20.9-19.6,26.4
			c-15,7.6-24.1,20-28.7,35.7c-5.7,19.9-5.6,39.9-0.5,60c5.6,22,21,37.1,36.8,51.9c13.3,12.5,27.1,24.7,39.2,38.5
			c9.1,10.3,13.7,22.3,14.5,35.9c1,16.6-7.1,27.8-21.3,29.2c-21.1,2.1-29.6-5.9-30.2-28.3c-0.2-7.6,2.3-18.1-1.6-22.1
			C904.2,965.6,893.7,968,886.1,967.6z"/>
		<path class="st1" d="M10.5,914c4-12.3,2.7-25.1,3.6-37.6c4.3-61.9,8.7-123.7,17.5-185.1c2.1-15,7.6-28.4,16.4-40.6
			c14.4-19.8,33.5-26.8,57.5-20.6c30.2,7.9,50.3,27,61.4,56c11.9,31.2,16.5,64,20.7,96.7c4.2,32.8,7.3,65.8,10.9,98.7
			c0.4,3.8,0.6,7.7,0.5,11.5c-0.6,15-3.6,19.1-17.9,23.5c-13.5,4.1-27.3,7.1-40.6,11.8c-8.6,3-10.7-0.7-12-7.7
			c-5-25.9-8.3-52-11.7-78.1c-4.4-33.7-7.4-67.7-13.6-101.2c-0.6-3-1.5-6-2.6-10.3c-5.9,8.8-5.7,17.7-6.4,26
			c-5.6,73.7-7.9,147.6-7.8,221.6c0,17.8,4,34.8,11.6,51.2c46,99.1,93.9,197.3,141.6,295.6c1.6,3.3,3.7,5.8,6.6,8
			c102.3,77.8,208.6,149.7,320,213.8c33.9,19.5,68.8,37.2,107.3,46.4c7.2,1.7,14.6,2.6,22,1.8c14.2-1.4,21.4-9.1,21.2-23.5
			c-0.2-14.2-5.8-26.9-12.1-39.2c-20.9-40.6-49-76-79.4-109.8c-55-61.2-115.1-116.6-186.4-158.7c-20.5-12.1-42-22-65.6-26.7
			c-23.2-4.6-44.3-2.1-60.4,17.3c-4.5,5.4-7.2,5.7-12.1-0.3c-42.4-51.7-85.3-102.8-124-157.5c-13-18.4-28.1-34.8-46-49
			c-34.3-27.2-27.2-80.3,12.3-98.8c33-15.4,65.1-9.4,96.7,4.6c52.4,23.3,95.4,59.2,132.6,102c32.2,37.2,64.1,74.6,99.5,108.9
			c4,3.8,7.8,5.6,13.4,5.9c61.8,3.7,122.3,14.6,181.4,33c47.8,14.9,86.9,43.3,122.8,77.1c58.5,55.2,105.8,117.9,132.9,194.5
			c16.8,47.3,22.7,95.9,16.9,146c-6.5,55.7-5.9,111.7-5.8,167.6c0,6.7-0.4,13.4-0.7,20.1c-125.8,0-251.6,0-377.3,0
			c-0.2-3.5-0.5-7-0.5-10.5c0-48.2,0-96.5,0-144.7c0-3.8,0.1-7.4-2.1-11.1c-14.5-24.4-31.7-45.9-57.4-59.5c-7.6-4-14.8-9-22.2-13.6
			c-75.5-46.3-152.5-90.2-225.4-140.6c-38.2-26.4-72.1-56.5-94.3-98.5c-48.2-91.4-91.3-185.1-127.2-281.9
			c-6.1-16.3-10.4-33.2-15.6-49.9C10.5,970.6,10.5,942.3,10.5,914z"/>
		<path class="st1" d="M981.1,1811.1c-0.9-33.7-1.7-67.4-2.7-101.1c-1.4-43.7-2-87.4-3.7-131.1c-1.9-49,10.8-94,31.5-137.4
			c41.4-86.7,102.1-156.9,182.7-209.1c43.5-28.2,92.8-41.5,143.4-50c23.7-4,47.6-7.3,71.6-9.6c22.7-2.2,41.9-10.5,58.1-26.7
			c19.6-19.6,37.5-40.6,55.1-61.9c36.3-44.2,76.1-84.7,125.5-114.4c30.7-18.5,62.9-32.2,99.9-28.9c17.5,1.6,33,8.4,46.2,19.8
			c22.2,19.1,22.6,64.5-1.2,83.8c-28,22.7-48.6,51-69.4,79.6c-33.1,45.5-69.7,88.2-105.6,131.5c-3.8,4.5-6,4.3-9.5,0.3
			c-19.3-22.1-43.6-23.3-69.8-16.5c-36.3,9.5-67.9,28.6-97.8,50.5c-78.1,57.2-145.9,124.9-202.4,203.6
			c-14.6,20.4-26.5,42.5-34.5,66.3c-5.5,16.1,0,28.9,13.7,34.2c5.2,2,10.7,2.2,16.1,1.6c21.4-2.1,41-10.4,60.3-19.1
			c57-25.5,109.6-58.7,162.3-91.8c72.9-45.8,143-95.7,212.9-145.9c3.8-2.7,6.3-6,8.4-10.1c50.9-102.8,101.4-205.8,150.6-309.5
			c2-4.2,3.1-8.2,3.3-12.8c2.8-82,0.3-163.9-6-245.7c-0.7-9.6,0-19.8-5.4-30.2c-4.8,5.8-4.9,11.9-5.7,17.6
			c-6.6,50-12.8,100-19.4,150c-1.4,10.4,0,24.4-7.4,29.9c-7.2,5.4-19-3.2-28.8-5.6c-5.9-1.4-11.8-3.1-17.6-4.8
			c-17-4.9-21.1-9.8-20.3-27.5c0.9-17.6,2.7-35.2,4.8-52.8c4.8-40.2,8.3-80.5,17.3-120.1c3.5-15.7,8-31.1,15.8-45.3
			c16.8-30.9,49.7-47.6,81.8-41.5c13.9,2.6,24.6,9.6,32.1,22.1c12.7,21.1,15.7,44.6,18.7,68.1c11.9,94.9,16.2,190.2,15.7,285.7
			c0,7.5-1.2,14.4-3.9,21.5c-38.7,100.6-81.8,199.2-133.2,294c-3.4,6.2-7.1,12.2-10.3,18.5c-15.7,30.3-38.4,53.8-66.5,73.4
			c-79.3,55.3-162.1,105-244.9,154.8c-12.1,7.3-23.6,15.5-35.6,23c-33.2,20.7-48.7,50.3-47.9,89.5c0.8,39.2,0.1,78.4,0,117.7
			c0,3.5-0.4,7-0.5,10.5c-121,0-242,0-362.9,0.1c-3.7,0-7.8-1.5-10.9,1.9C983.6,1811.1,982.3,1811.1,981.1,1811.1z"/>
		<path class="st0" d="M10.5,998.8c5.2,16.6,9.5,33.6,15.6,49.9c36,96.9,79.1,190.5,127.2,281.9c22.1,42,56.1,72.1,94.3,98.5
			c72.9,50.4,149.9,94.3,225.4,140.6c7.4,4.5,14.5,9.5,22.2,13.6c25.7,13.6,42.9,35.1,57.4,59.5c2.2,3.7,2.1,7.3,2.1,11.1
			c0,48.2,0,96.5,0,144.7c0,3.5,0.3,7,0.5,10.5c-0.2,0.6-0.4,1.3-0.5,1.9c-178.7,0-357.4-0.1-536,0.2c-7.2,0-8.3-1.8-8.3-8.5
			C10.5,1534.8,10.5,1266.8,10.5,998.8z"/>
		<path class="st2" d="M554.6,1811.1c0.2-0.6,0.4-1.3,0.5-1.9c125.8,0,251.6,0,377.3,0c0.1,0.6,0.2,1.3,0.3,1.9
			C806.8,1811.1,680.7,1811.1,554.6,1811.1z"/>
		<path class="st2" d="M984.9,1811.1c3.2-3.4,7.3-1.9,10.9-1.9c121-0.1,242-0.1,362.9-0.1c0.2,0.6,0.3,1.3,0.5,1.9
			C1234.5,1811.1,1109.7,1811.1,984.9,1811.1z"/>
		<path class="st1" d="M680.7,711.5c-127.6-0.9-225.8-101.3-226.1-229.1C454.2,342.9,574,252.8,684.6,254.3
			c110.6,1.5,226.7,90,225.5,230.6C908.9,622.3,797.7,713,680.7,711.5z M652.6,447.5c1-3.9,1-4.2,1.2-4.4
			c26.8-30.7,26.8-30.7,66.9-26.6c19.7,2,20.3,1.5,21.1-18.7c0.1-1.6,0-3.2,0-4.8c0.1-6.7-2.6-10.6-9.7-12c-14-2.7-28-3.1-42.2-3.4
			c-21.5-0.4-39.3,8-54.7,22.2c-8.8,8.1-16.1,17.4-21.2,28.3c-4.6,9.7-10,18.4-21.9,21.3c-6,1.4-8.9,7.1-8.6,13.6
			c0.3,6.4,5,7.4,10,8.2c4,0.6,8,1.6,8.1,6.6c0.1,5.5-4.2,6.8-8.5,7.3c-4.9,0.5-8.9,2-9.6,7.5c-0.7,6.1,1.4,11.9,7,13.5
			c12.3,3.5,18.3,12.6,23,23c21.7,48.5,71,62.2,120.4,46.5c9.3-3,11.5-8.2,9.3-19.1c-2.9-14.5-5.4-17.2-16.5-16.4
			c-9.3,0.6-18.6,1.8-27.9,1.1c-24.6-1.7-38.1-11.7-43.3-32.7c20.4,0,40.6,0.2,60.8-0.1c11.4-0.2,13.7-3.1,13.6-12.6
			c-0.1-8.5-5.5-10-12.1-10.2c-18.3-0.5-36.6-0.7-54.9-1.5c-5-0.2-13.2,0.8-12.9-6.3c0.2-6.6,8.2-5.7,13.4-5.9
			c18.6-0.7,37.3-1.2,55.9-1.6c6.9-0.2,10.4-3,10.7-10.5c0.5-11-7.1-12-14.5-12.2C695,447.3,674.5,447.5,652.6,447.5z"/>
		<path class="st2" d="M911.4,603.2c6.1-16.2,12.2-32,18-47.9c1.7-4.6,5.2-3.8,8.6-3.9c48.2-2,93.3,10.1,137.4,28.3
			c98.7,40.7,167.8,111.9,201.3,211.8c72,214.6-49.3,429.9-270.7,475c-119.8,24.4-226-8.2-316.9-92.6c-62-57.6-96-128.3-110.5-209.6
			c-10.5-59.1-2.3-117.1,17.5-173.5c5.7-16.3,12.4-32.3,18.2-48.6c2-5.6,4.4-7,10.4-6.1c14,2.1,28.1,3.5,42.2,4.3
			c8.4,0.5,8.1,4.3,5.2,9.9c-8.5,16.2-16.8,32.4-23.5,49.5c-60.7,154.3,12.3,328.9,164.6,395.6c184.4,80.8,390-36.1,425.4-219
			c20.1-103.7-3.4-196.7-78.1-274.6c-46-47.9-99.7-81.2-165.6-93.5c-25.8-4.8-51.8-4.9-77.8-4.7
			C915.4,603.5,913.8,603.3,911.4,603.2z"/>
		<path class="st1" d="M1314.5,283.6c5.4,32.9-8.6,66-31,96.4c-21,28.5-47.3,50.3-81.6,59.8c-92.3,25.5-158.7-1.5-209.9-76.6
			c-14.5-21.3-18.9-45.7-21.9-70.9c-10.3-85.9,50.1-168.9,129.7-185.6c90.7-19,168.4,20,206.3,103.6c2.7,6.1,4.7,12.7,5.8,19.2
			C1314.7,245.5,1314.7,261.6,1314.5,283.6z M1159.9,319.7c4.5-3,7.9-3.8,11.4-4.2c8.9-1.1,17.8-2.2,26.7-3.7
			c3.5-0.6,7.1-2.1,7.1-6.5c0-4.5-3.7-6-7.2-6.5c-8.3-1.2-16.6-1.9-24.9-2.5c-11.3-0.8-11.2-0.7-8.1-11.2
			c9-30.4,17.7-60.9,27.1-91.2c2.7-8.7-0.4-10.9-8.1-11.4c-14-0.9-17.5,1.2-21.1,15.1c-4.4,17.1-8.2,34.3-13.9,51
			c-0.7,2.1-1,4.8-4.3,5.6c-1.4-3.2-2.6-5.8-3.6-8.4c-5.7-14.7-8.4-30.2-12.9-45.3c-4.6-15.2-8.6-18-24.1-17.7
			c-8.1,0.1-10.6,2.7-8,11.1c9.7,31.2,18.4,62.7,28.2,93.9c2.3,7.4,0.5,8.6-6.4,8.3c-9.6-0.4-19.3,0.1-28.9,0.4
			c-5.7,0.2-9,3.2-8.8,9.1c0.2,5.5,3.4,8,8.7,8.3c7.7,0.4,15.4,0.6,23.1,1.3c5.1,0.5,10.7-0.4,15.2,4.2c-4.8,3.8-9.9,3.9-14.9,4.2
			c-8.3,0.5-16.7,1-25,1.5c-2.6,0.2-5.3,0.8-5.9,3.9c-0.5,2.9,0,5.8,2.4,7.9c2.8,2.4,6.1,3.5,9.7,3.9c7.4,0.7,14.7,1.4,22.1,2.2
			c7.7,0.7,12.9,3.9,12.2,12.7c-0.6,7.3,2.9,10.8,10.2,10.7c4.8,0,9.6,0,14.4-0.2c5.4-0.2,7.8-3.1,8.4-8.5
			c1.4-13.2,2.4-13.9,15.9-15c7.7-0.7,15.3-1.7,22.9-3c3.2-0.6,6.1-2.3,5.9-6.5c-0.2-3.5-2.9-5.1-5.7-5.7c-4.7-1-9.5-1.6-14.2-2.2
			C1177.1,324.5,1168.8,324.5,1159.9,319.7z"/>
		<path class="st2" d="M886.1,967.6c7.6,0.4,18.1-2,22,2c3.9,4,1.4,14.5,1.6,22.1c0.6,22.4,9.1,30.4,30.2,28.3
			c14.2-1.4,22.3-12.6,21.3-29.2c-0.8-13.6-5.4-25.5-14.5-35.9c-12.2-13.8-25.9-25.9-39.2-38.5c-15.7-14.8-31.2-29.9-36.8-51.9
			c-5.1-20-5.2-40.1,0.5-60c4.5-15.8,13.7-28.2,28.7-35.7c11-5.5,21.1-11.6,19.6-26.4c-0.2-2.4,1.6-4.1,3.7-5.2
			c9.6-4.7,29.9,2.4,33.9,12.2c3,7.4,7.8,13.8,14.5,17.5c24.3,13.3,33.2,35.2,36.3,61c2,17,2.4,17-14.6,17c-8.4,0-16.7-0.3-25.1,0.1
			c-5,0.2-6.7-1.2-6.5-6.4c0.3-7,0.8-14.1-1.3-21.1c-3.1-10.4-9.5-15-21.6-15.2c-12.4-0.2-19.5,3.9-21.9,14.5
			c-4.2,18.7-4.4,36.6,11,51.8c16.9,16.7,34.6,32.7,50.1,50.8c13.5,15.7,25.8,32.3,29.1,53.4c3.7,23.3-0.7,45.4-12.7,65.7
			c-5.2,8.8-13.3,14.6-22.5,19c-8.6,4.1-15.2,9.7-14.9,20.4c0,0.9-0.1,2.1-0.6,2.8c-7.2,9.9-17.6,4.1-26.6,5.1
			c-5,0.5-10-0.9-10.3-7.4c-0.3-7.4-4.8-12.5-10.6-15c-33.2-14.7-41.6-44-45.3-76.1c-2.2-19.3-2.2-19.3,17.8-19.3c1.6,0,3.2,0,4.8,0
			C886.1,967.9,886.1,967.7,886.1,967.6z"/>
		<path class="st0" d="M652.6,447.5c21.9,0,42.5-0.3,63,0.1c7.4,0.1,15.1,1.1,14.5,12.2c-0.4,7.5-3.8,10.3-10.7,10.5
			c-18.6,0.5-37.3,0.9-55.9,1.6c-5.2,0.2-13.2-0.7-13.4,5.9c-0.3,7.1,7.9,6.1,12.9,6.3c18.3,0.8,36.6,1,54.9,1.5
			c6.6,0.2,12,1.7,12.1,10.2c0.1,9.5-2.3,12.4-13.6,12.6c-20.2,0.3-40.5,0.1-60.8,0.1c5.2,20.9,18.6,31,43.3,32.7
			c9.3,0.6,18.6-0.5,27.9-1.1c11.1-0.8,13.5,1.9,16.5,16.4c2.2,10.9,0,16.1-9.3,19.1c-49.4,15.7-98.7,2-120.4-46.5
			c-4.6-10.4-10.7-19.5-23-23c-5.5-1.6-7.7-7.5-7-13.5c0.7-5.6,4.6-7,9.6-7.5c4.3-0.5,8.6-1.8,8.5-7.3c-0.1-4.9-4.2-6-8.1-6.6
			c-5-0.7-9.7-1.8-10-8.2c-0.3-6.5,2.5-12.1,8.6-13.6c11.9-2.8,17.3-11.5,21.9-21.3c5.2-10.9,12.4-20.2,21.2-28.3
			c15.5-14.2,33.2-22.6,54.7-22.2c14.2,0.3,28.2,0.6,42.2,3.4c7.1,1.4,9.8,5.3,9.7,12c0,1.6,0.1,3.2,0,4.8
			c-0.8,20.1-1.4,20.7-21.1,18.7c-40.1-4.1-40.1-4.1-66.9,26.6C653.6,443.4,653.6,443.7,652.6,447.5z"/>
		<path class="st0" d="M1159.9,319.7c8.8,4.7,17.2,4.7,25.3,5.8c4.8,0.6,9.6,1.1,14.2,2.2c2.8,0.6,5.5,2.1,5.7,5.7
			c0.3,4.1-2.7,5.9-5.9,6.5c-7.6,1.3-15.2,2.3-22.9,3c-13.4,1.2-14.5,1.8-15.9,15c-0.6,5.4-3,8.3-8.4,8.5c-4.8,0.2-9.6,0.1-14.4,0.2
			c-7.2,0.1-10.7-3.4-10.2-10.7c0.7-8.8-4.5-12-12.2-12.7c-7.4-0.7-14.7-1.4-22.1-2.2c-3.6-0.4-6.9-1.5-9.7-3.9
			c-2.4-2.1-2.9-5-2.4-7.9c0.6-3.1,3.3-3.7,5.9-3.9c8.3-0.6,16.7-1,25-1.5c5-0.3,10.1-0.4,14.9-4.2c-4.6-4.6-10.2-3.7-15.2-4.2
			c-7.7-0.7-15.4-0.9-23.1-1.3c-5.3-0.3-8.5-2.8-8.7-8.3c-0.2-5.9,3.2-8.9,8.8-9.1c9.6-0.3,19.3-0.8,28.9-0.4
			c6.9,0.3,8.7-0.9,6.4-8.3c-9.7-31.2-18.5-62.7-28.2-93.9c-2.6-8.5-0.1-11,8-11.1c15.6-0.2,19.5,2.5,24.1,17.7
			c4.5,15,7.2,30.6,12.9,45.3c1,2.7,2.2,5.2,3.6,8.4c3.3-0.9,3.5-3.5,4.3-5.6c5.6-16.7,9.5-33.9,13.9-51c3.6-13.9,7.1-16,21.1-15.1
			c7.7,0.5,10.8,2.7,8.1,11.4c-9.4,30.3-18.1,60.8-27.1,91.2c-3.1,10.5-3.1,10.3,8.1,11.2c8.3,0.6,16.7,1.3,24.9,2.5
			c3.4,0.5,7.2,2,7.2,6.5c0,4.4-3.6,6-7.1,6.5c-8.9,1.5-17.8,2.6-26.7,3.7C1167.8,316,1164.4,316.8,1159.9,319.7z"/>
	</g>
</g>
</svg>
