<?xml version="1.0" encoding="utf-8"?>
<!-- Generator: Adobe Illustrator 16.0.0, SVG Export Plug-In . SVG Version: 6.00 Build 0)  -->
<!DOCTYPE svg PUBLIC "-//W3C//DTD SVG 1.1//EN" "http://www.w3.org/Graphics/SVG/1.1/DTD/svg11.dtd">
<svg version="1.1" id="Layer_1" xmlns="http://www.w3.org/2000/svg" xmlns:xlink="http://www.w3.org/1999/xlink" x="0px" y="0px"
	 width="128px" height="128px" viewBox="0 0 128 128" enable-background="new 0 0 128 128" xml:space="preserve">
<g>
	<g>
		<g>
			<g>
				<path fill="#fff" d="M12.792,86.461l-1.529-1.428c-3.824-3.576-7.223-6.705-10.392-9.566L0,74.682l0.263-1.145
					c1.865-8.1,6-15.487,11.959-21.364c8.424-8.308,19.625-12.883,31.54-12.883c1.608,0,3.234,0.086,4.833,0.257l3.756,0.401
					L12.792,86.461z M4.433,73.303c2.498,2.266,5.144,4.697,8.028,7.385L44.27,43.286c-11.016-0.104-21.451,4.046-29.243,11.729
					C9.888,60.085,6.24,66.387,4.433,73.303z"/>
			</g>
			<g>
				<path fill="#fff" d="M53.83,127.783l-0.78-0.842c-3.375-3.641-7.032-7.5-10.87-11.475l-1.497-1.551l47.889-39.637
					l0.549,3.457c2.202,13.885-2.481,28.092-12.531,38.006c-5.958,5.877-13.44,9.953-21.639,11.789L53.83,127.783z M46.548,114.246
					c3.018,3.139,5.913,6.199,8.636,9.125c7.034-1.781,13.445-5.387,18.601-10.471c8.271-8.16,12.543-19.52,11.791-30.959
					L46.548,114.246z"/>
			</g>
		</g>
		<g>
			<path fill="#fff" d="M56.031,105.199L21.61,71.244l40.365-47.462C74.71,8.807,93.396,0.217,113.241,0.217
				c4.037,0,8.096,0.362,12.06,1.076l1.358,0.245l0.251,1.357c4.324,23.344-4.415,47.3-22.807,62.521L56.031,105.199z
				 M27.055,71.006L56.266,99.82l45.291-37.48c16.917-14,25.142-35.864,21.664-57.348c-3.292-0.519-6.643-0.781-9.979-0.781
				c-18.672,0-36.249,8.077-48.225,22.159L27.055,71.006z"/>
		</g>
		<g>
			<path fill="#fff" d="M4.931,123.645h-1.34l-0.511-1.242c-0.172-0.42-0.531-1.295,3.319-12.104
				c2.686-7.541,5.01-12.313,6.91-14.186c2.334-2.303,5.436-3.572,8.734-3.572c3.298,0,6.4,1.27,8.734,3.572
				c2.343,2.309,3.634,5.385,3.634,8.656s-1.291,6.346-3.634,8.654c-4.055,4.002-21.125,8.969-24.805,10.004l-0.215,0.215
				L4.931,123.645z M22.043,96.533c-2.241,0-4.347,0.861-5.93,2.422c-2.557,2.521-6.532,14.002-8.314,19.785
				c7.685-2.305,17.859-5.875,20.174-8.16c1.577-1.555,2.444-3.617,2.444-5.811c0-2.195-0.868-4.26-2.444-5.813
				C26.39,97.395,24.284,96.533,22.043,96.533z"/>
		</g>
		<g>
			<path fill="#fff" d="M123.905,37.908l-2.347-3.387c-3.736-5.392-8.052-10.516-12.828-15.229
				c-4.776-4.71-9.972-8.967-15.441-12.654l-3.507-2.364l4.054-1.206c10.196-3.033,21.073-3.646,31.465-1.775l1.358,0.245
				l0.251,1.357c1.898,10.259,1.275,21.004-1.801,31.073L123.905,37.908z M99.069,5.823c4.378,3.21,8.558,6.773,12.466,10.627
				c3.929,3.878,7.559,8.025,10.828,12.367c1.828-7.819,2.125-15.957,0.856-23.825C115.232,3.735,106.977,4.023,99.069,5.823z"/>
		</g>
		<g>
			<path fill="#fff" d="M91.844,52.308c-4.427,0-8.59-1.702-11.724-4.792c-3.141-3.097-4.87-7.218-4.87-11.603
				c0-4.384,1.729-8.505,4.87-11.603c3.131-3.09,7.294-4.792,11.721-4.792c4.428,0,8.592,1.702,11.724,4.792
				c3.141,3.098,4.87,7.218,4.87,11.602c0,4.385-1.729,8.506-4.87,11.604C100.434,50.606,96.271,52.308,91.844,52.308z
				 M91.841,23.512c-3.37,0-6.537,1.293-8.916,3.641c-2.374,2.342-3.682,5.453-3.682,8.76c0,3.308,1.308,6.419,3.681,8.76
				c2.381,2.348,5.55,3.642,8.92,3.642c3.371,0,6.537-1.293,8.917-3.642c2.374-2.342,3.681-5.453,3.681-8.761
				c0-3.307-1.308-6.418-3.681-8.759C98.38,24.805,95.212,23.512,91.841,23.512z"/>
		</g>
		<g>
			
				<rect x="25.095" y="75.175" transform="matrix(0.7119 0.7023 -0.7023 0.7119 68.6039 -12.8943)" fill="#fff" width="49.846" height="3.993"/>
		</g>
	</g>
</g>
</svg>
