<?xml version="1.0" encoding="utf-8"?>
<!-- Generator: Adobe Illustrator 16.0.0, SVG Export Plug-In . SVG Version: 6.00 Build 0)  -->
<!DOCTYPE svg PUBLIC "-//W3C//DTD SVG 1.1//EN" "http://www.w3.org/Graphics/SVG/1.1/DTD/svg11.dtd">
<svg version="1.1" id="Layer_1" xmlns="http://www.w3.org/2000/svg" xmlns:xlink="http://www.w3.org/1999/xlink" x="0px" y="0px"
	 width="128px" height="128px" viewBox="0 0 128 128" enable-background="new 0 0 128 128" xml:space="preserve">
<g>
	<g>
		<g>
			<path fill="#fff" d="M119.63,114.268H8.37c-4.615,0-8.37-3.793-8.37-8.455V40.191c0-4.662,3.755-8.455,8.37-8.455h54.94v4
				H8.37c-2.41,0-4.37,1.998-4.37,4.455v65.621c0,2.457,1.96,4.455,4.37,4.455h111.26c2.41,0,4.37-1.998,4.37-4.455V40.191
				c0-2.457-1.96-4.455-4.37-4.455v-4c4.615,0,8.37,3.793,8.37,8.455v65.621C128,110.475,124.245,114.268,119.63,114.268z"/>
		</g>
		<g>
			<rect x="11.663" y="75.521" fill="#fff" width="20.261" height="4"/>
		</g>
		<g>
			<rect x="11.663" y="90.16" fill="#fff" width="46" height="4"/>
		</g>
		<g>
			<rect x="38.657" y="75.521" fill="#fff" width="20.263" height="4"/>
		</g>
		<g>
			<rect x="65.658" y="75.521" fill="#fff" width="20.264" height="4"/>
		</g>
		<g>
			<rect x="92.658" y="75.521" fill="#fff" width="20.262" height="4"/>
		</g>
		<g>
			<path fill="#fff" d="M35.117,66.633H11.819V48.112h23.298V66.633z M15.819,62.633h15.298V52.112H15.819V62.633z"/>
		</g>
	</g>
	<g>
		<g>
			<g>
				<path fill="#fff" d="M106.244,31.706h-4v-3.704c0-5.663-3.955-10.27-8.817-10.27h-3.366c-4.863,0-8.82,4.606-8.82,10.27
					v3.704h-4v-3.704c0-7.868,5.751-14.27,12.82-14.27h3.366c7.067,0,12.817,6.401,12.817,14.27V31.706z"/>
			</g>
		</g>
		<g>
			<path fill="#fff" d="M108.334,36.171V62.52H75.152V36.171H108.334 M112.271,32.234h-3.938H75.152h-3.938v3.937V62.52v3.937
				h3.938h33.182h3.938V62.52V36.171V32.234L112.271,32.234z"/>
		</g>
		<g>
			<rect x="89.743" y="45.397" fill="#fff" width="4" height="8.789"/>
		</g>
	</g>
</g>
</svg>
